<svg xmlns="http://www.w3.org/2000/svg" xmlns:xlink="http://www.w3.org/1999/xlink" width="500" zoomAndPan="magnify" viewBox="0 0 375 374.999991" height="500" preserveAspectRatio="xMidYMid meet" version="1.0"><defs><g/><clipPath id="c5b7dd0383"><path d="M 53.339844 159.949219 L 95 159.949219 L 95 203 L 53.339844 203 Z M 53.339844 159.949219 " clip-rule="nonzero"/></clipPath></defs><g clip-path="url(#c5b7dd0383)"><path fill="#2dfa5d" d="M 69.730469 166.835938 L 86.621094 166.835938 L 88.066406 169.328125 L 94.226562 166.277344 L 90.578125 159.964844 L 65.753906 159.964844 L 59.558594 170.714844 L 53.339844 181.46875 L 59.558594 192.21875 L 65.753906 202.972656 L 90.578125 202.972656 L 94.226562 196.640625 L 88.066406 193.589844 L 86.621094 196.101562 L 69.730469 196.101562 L 65.503906 188.785156 L 61.273438 181.46875 L 65.503906 174.152344 L 69.730469 166.835938 " fill-opacity="1" fill-rule="evenodd"/></g><path fill="#2dfa5d" d="M 72.894531 181.351562 L 72.894531 181.585938 L 72.820312 181.46875 Z M 90.847656 174.152344 L 93.183594 178.226562 L 74.691406 178.226562 L 77.046875 174.152344 L 78.667969 171.351562 L 72.492188 168.304688 L 71.101562 170.714844 L 64.886719 181.46875 L 71.101562 192.21875 L 72.492188 194.632812 L 78.667969 191.582031 L 77.046875 188.785156 L 74.691406 184.710938 L 93.183594 184.710938 L 90.847656 188.785156 L 89.226562 191.582031 L 95.402344 194.632812 L 96.792969 192.21875 L 102.988281 181.46875 L 96.792969 170.714844 L 95.402344 168.304688 L 89.226562 171.351562 L 90.847656 174.152344 " fill-opacity="1" fill-rule="evenodd"/><g fill="#ffffff" fill-opacity="1"><g transform="translate(102.993367, 182.106982)"><g><path d="M 8.46875 0 L 0.078125 -19.265625 L 5.296875 -19.265625 L 11.3125 -4.40625 L 11.359375 -4.40625 L 17.3125 -19.265625 L 22.59375 -19.265625 L 14.1875 0 Z M 8.46875 0 "/></g></g></g><g fill="#ffffff" fill-opacity="1"><g transform="translate(125.644052, 182.106982)"><g><path d="M 3.484375 -15.75 C 2.710938 -15.75 2.078125 -15.976562 1.578125 -16.4375 C 1.085938 -16.894531 0.84375 -17.488281 0.84375 -18.21875 C 0.84375 -18.957031 1.085938 -19.550781 1.578125 -20 C 2.078125 -20.445312 2.710938 -20.671875 3.484375 -20.671875 C 4.285156 -20.671875 4.925781 -20.445312 5.40625 -20 C 5.894531 -19.550781 6.140625 -18.957031 6.140625 -18.21875 C 6.140625 -17.488281 5.894531 -16.894531 5.40625 -16.4375 C 4.925781 -15.976562 4.285156 -15.75 3.484375 -15.75 Z M 1.21875 0 L 1.21875 -13.859375 L 5.734375 -13.859375 L 5.734375 0 Z M 1.21875 0 "/></g></g></g><g fill="#ffffff" fill-opacity="1"><g transform="translate(132.625984, 182.106982)"><g><path d="M 9.03125 0.484375 C 7.695312 0.484375 6.441406 0.328125 5.265625 0.015625 C 4.097656 -0.296875 3.09375 -0.75 2.25 -1.34375 C 1.414062 -1.945312 0.828125 -2.65625 0.484375 -3.46875 L 3.109375 -4.890625 C 3.378906 -4.390625 3.8125 -3.945312 4.40625 -3.5625 C 5 -3.1875 5.691406 -2.890625 6.484375 -2.671875 C 7.285156 -2.460938 8.128906 -2.359375 9.015625 -2.359375 C 10.179688 -2.359375 11.113281 -2.503906 11.8125 -2.796875 C 12.507812 -3.097656 12.859375 -3.484375 12.859375 -3.953125 C 12.859375 -4.367188 12.597656 -4.691406 12.078125 -4.921875 C 11.566406 -5.160156 10.789062 -5.34375 9.75 -5.46875 L 6.921875 -5.765625 C 5.085938 -5.960938 3.707031 -6.367188 2.78125 -6.984375 C 1.863281 -7.597656 1.40625 -8.5 1.40625 -9.6875 C 1.40625 -10.695312 1.71875 -11.546875 2.34375 -12.234375 C 2.96875 -12.921875 3.828125 -13.441406 4.921875 -13.796875 C 6.023438 -14.160156 7.28125 -14.34375 8.6875 -14.34375 C 10.289062 -14.34375 11.726562 -14.046875 13 -13.453125 C 14.269531 -12.867188 15.203125 -12.09375 15.796875 -11.125 L 13.28125 -9.6875 C 12.882812 -10.257812 12.257812 -10.726562 11.40625 -11.09375 C 10.550781 -11.46875 9.617188 -11.65625 8.609375 -11.65625 C 7.671875 -11.65625 6.882812 -11.515625 6.25 -11.234375 C 5.613281 -10.960938 5.296875 -10.609375 5.296875 -10.171875 C 5.296875 -9.796875 5.515625 -9.507812 5.953125 -9.3125 C 6.398438 -9.113281 7.078125 -8.941406 7.984375 -8.796875 L 10.828125 -8.46875 C 12.847656 -8.21875 14.363281 -7.773438 15.375 -7.140625 C 16.382812 -6.515625 16.890625 -5.566406 16.890625 -4.296875 C 16.890625 -3.285156 16.550781 -2.421875 15.875 -1.703125 C 15.195312 -0.984375 14.265625 -0.4375 13.078125 -0.0625 C 11.898438 0.300781 10.550781 0.484375 9.03125 0.484375 Z M 9.03125 0.484375 "/></g></g></g><g fill="#ffffff" fill-opacity="1"><g transform="translate(149.972564, 182.106982)"><g><path d="M 3.484375 -15.75 C 2.710938 -15.75 2.078125 -15.976562 1.578125 -16.4375 C 1.085938 -16.894531 0.84375 -17.488281 0.84375 -18.21875 C 0.84375 -18.957031 1.085938 -19.550781 1.578125 -20 C 2.078125 -20.445312 2.710938 -20.671875 3.484375 -20.671875 C 4.285156 -20.671875 4.925781 -20.445312 5.40625 -20 C 5.894531 -19.550781 6.140625 -18.957031 6.140625 -18.21875 C 6.140625 -17.488281 5.894531 -16.894531 5.40625 -16.4375 C 4.925781 -15.976562 4.285156 -15.75 3.484375 -15.75 Z M 1.21875 0 L 1.21875 -13.859375 L 5.734375 -13.859375 L 5.734375 0 Z M 1.21875 0 "/></g></g></g><g fill="#ffffff" fill-opacity="1"><g transform="translate(156.954496, 182.106982)"><g><path d="M 9.640625 0.515625 C 7.742188 0.515625 6.257812 0.046875 5.1875 -0.890625 C 4.113281 -1.828125 3.578125 -3.109375 3.578125 -4.734375 L 3.546875 -10.71875 L 0.140625 -10.71875 L 0.140625 -13.859375 L 3.546875 -13.859375 L 3.546875 -17.71875 L 8.09375 -18.640625 L 8.09375 -13.859375 L 15.1875 -13.859375 L 15.1875 -10.71875 L 8.09375 -10.71875 L 8.09375 -5.546875 C 8.09375 -4.703125 8.320312 -4.046875 8.78125 -3.578125 C 9.238281 -3.117188 9.882812 -2.890625 10.71875 -2.890625 C 11.507812 -2.890625 12.210938 -3.066406 12.828125 -3.421875 C 13.441406 -3.773438 13.984375 -4.285156 14.453125 -4.953125 L 15.796875 -2.328125 C 15.117188 -1.410156 14.242188 -0.707031 13.171875 -0.21875 C 12.109375 0.269531 10.929688 0.515625 9.640625 0.515625 Z M 9.640625 0.515625 "/></g></g></g><g fill="#ffffff" fill-opacity="1"><g transform="translate(173.083295, 182.106982)"><g><path d="M 12.9375 0.625 C 10.476562 0.625 8.347656 0.207031 6.546875 -0.625 C 4.742188 -1.457031 3.347656 -2.640625 2.359375 -4.171875 C 1.378906 -5.703125 0.890625 -7.523438 0.890625 -9.640625 C 0.890625 -11.734375 1.351562 -13.546875 2.28125 -15.078125 C 3.21875 -16.609375 4.53125 -17.789062 6.21875 -18.625 C 7.914062 -19.46875 9.929688 -19.890625 12.265625 -19.890625 C 14.023438 -19.890625 15.625 -19.601562 17.0625 -19.03125 C 18.5 -18.46875 19.695312 -17.664062 20.65625 -16.625 C 21.625 -15.59375 22.28125 -14.363281 22.625 -12.9375 L 18.03125 -11.828125 C 17.71875 -13.085938 17.050781 -14.082031 16.03125 -14.8125 C 15.007812 -15.539062 13.78125 -15.90625 12.34375 -15.90625 C 11.039062 -15.90625 9.90625 -15.648438 8.9375 -15.140625 C 7.976562 -14.628906 7.234375 -13.90625 6.703125 -12.96875 C 6.179688 -12.03125 5.921875 -10.921875 5.921875 -9.640625 C 5.921875 -8.359375 6.207031 -7.242188 6.78125 -6.296875 C 7.363281 -5.359375 8.191406 -4.632812 9.265625 -4.125 C 10.335938 -3.613281 11.597656 -3.359375 13.046875 -3.359375 C 14.753906 -3.359375 16.207031 -3.789062 17.40625 -4.65625 C 18.613281 -5.519531 19.367188 -6.679688 19.671875 -8.140625 L 24.359375 -7.359375 C 24.066406 -5.734375 23.40625 -4.320312 22.375 -3.125 C 21.351562 -1.925781 20.035156 -1 18.421875 -0.34375 C 16.804688 0.300781 14.976562 0.625 12.9375 0.625 Z M 12.9375 0.625 "/></g></g></g><g fill="#ffffff" fill-opacity="1"><g transform="translate(197.953041, 182.106982)"><g><path d="M 9.90625 0.515625 C 8.050781 0.515625 6.425781 0.207031 5.03125 -0.40625 C 3.644531 -1.019531 2.566406 -1.882812 1.796875 -3 C 1.035156 -4.125 0.65625 -5.429688 0.65625 -6.921875 C 0.65625 -8.421875 1.035156 -9.726562 1.796875 -10.84375 C 2.566406 -11.96875 3.644531 -12.835938 5.03125 -13.453125 C 6.425781 -14.066406 8.050781 -14.375 9.90625 -14.375 C 11.78125 -14.375 13.40625 -14.066406 14.78125 -13.453125 C 16.164062 -12.835938 17.238281 -11.96875 18 -10.84375 C 18.769531 -9.726562 19.15625 -8.421875 19.15625 -6.921875 C 19.15625 -5.429688 18.769531 -4.125 18 -3 C 17.238281 -1.882812 16.164062 -1.019531 14.78125 -0.40625 C 13.40625 0.207031 11.78125 0.515625 9.90625 0.515625 Z M 9.90625 -2.765625 C 11.34375 -2.765625 12.488281 -3.140625 13.34375 -3.890625 C 14.207031 -4.648438 14.640625 -5.660156 14.640625 -6.921875 C 14.640625 -8.203125 14.207031 -9.21875 13.34375 -9.96875 C 12.488281 -10.71875 11.34375 -11.09375 9.90625 -11.09375 C 8.457031 -11.09375 7.300781 -10.71875 6.4375 -9.96875 C 5.570312 -9.21875 5.140625 -8.203125 5.140625 -6.921875 C 5.140625 -5.660156 5.570312 -4.648438 6.4375 -3.890625 C 7.300781 -3.140625 8.457031 -2.765625 9.90625 -2.765625 Z M 9.90625 -2.765625 "/></g></g></g><g fill="#ffffff" fill-opacity="1"><g transform="translate(217.762236, 182.106982)"><g><path d="M 11.859375 -14.3125 C 13.710938 -14.3125 15.171875 -13.804688 16.234375 -12.796875 C 17.296875 -11.785156 17.828125 -10.398438 17.828125 -8.640625 L 17.828125 0 L 13.28125 0 L 13.28125 -7.765625 C 13.28125 -8.796875 12.976562 -9.601562 12.375 -10.1875 C 11.769531 -10.769531 10.925781 -11.0625 9.84375 -11.0625 C 8.550781 -11.0625 7.519531 -10.695312 6.75 -9.96875 C 5.988281 -9.238281 5.609375 -8.234375 5.609375 -6.953125 L 5.609375 0 L 1.078125 0 L 1.078125 -13.859375 L 4.984375 -13.859375 L 5.546875 -10.875 L 5.578125 -10.875 C 6.148438 -11.9375 6.976562 -12.773438 8.0625 -13.390625 C 9.144531 -14.003906 10.410156 -14.3125 11.859375 -14.3125 Z M 11.859375 -14.3125 "/></g></g></g><g fill="#ffffff" fill-opacity="1"><g transform="translate(236.543096, 182.106982)"><g><path d="M 9.640625 0.515625 C 7.742188 0.515625 6.257812 0.046875 5.1875 -0.890625 C 4.113281 -1.828125 3.578125 -3.109375 3.578125 -4.734375 L 3.546875 -10.71875 L 0.140625 -10.71875 L 0.140625 -13.859375 L 3.546875 -13.859375 L 3.546875 -17.71875 L 8.09375 -18.640625 L 8.09375 -13.859375 L 15.1875 -13.859375 L 15.1875 -10.71875 L 8.09375 -10.71875 L 8.09375 -5.546875 C 8.09375 -4.703125 8.320312 -4.046875 8.78125 -3.578125 C 9.238281 -3.117188 9.882812 -2.890625 10.71875 -2.890625 C 11.507812 -2.890625 12.210938 -3.066406 12.828125 -3.421875 C 13.441406 -3.773438 13.984375 -4.285156 14.453125 -4.953125 L 15.796875 -2.328125 C 15.117188 -1.410156 14.242188 -0.707031 13.171875 -0.21875 C 12.109375 0.269531 10.929688 0.515625 9.640625 0.515625 Z M 9.640625 0.515625 "/></g></g></g><g fill="#ffffff" fill-opacity="1"><g transform="translate(252.671895, 182.106982)"><g><path d="M 10.3125 -14.3125 C 11.6875 -14.3125 12.8125 -13.847656 13.6875 -12.921875 C 14.570312 -11.992188 15.078125 -10.707031 15.203125 -9.0625 L 11.203125 -8.125 C 11.128906 -9.070312 10.867188 -9.816406 10.421875 -10.359375 C 9.984375 -10.898438 9.421875 -11.171875 8.734375 -11.171875 C 7.765625 -11.171875 7.003906 -10.78125 6.453125 -10 C 5.898438 -9.21875 5.625 -8.15625 5.625 -6.8125 L 5.625 0 L 1.078125 0 L 1.078125 -13.859375 L 4.8125 -13.859375 L 5.4375 -11.171875 L 5.46875 -11.171875 C 5.914062 -12.148438 6.566406 -12.914062 7.421875 -13.46875 C 8.285156 -14.03125 9.25 -14.3125 10.3125 -14.3125 Z M 10.3125 -14.3125 "/></g></g></g><g fill="#ffffff" fill-opacity="1"><g transform="translate(268.259446, 182.106982)"><g><path d="M 9.90625 0.515625 C 8.050781 0.515625 6.425781 0.207031 5.03125 -0.40625 C 3.644531 -1.019531 2.566406 -1.882812 1.796875 -3 C 1.035156 -4.125 0.65625 -5.429688 0.65625 -6.921875 C 0.65625 -8.421875 1.035156 -9.726562 1.796875 -10.84375 C 2.566406 -11.96875 3.644531 -12.835938 5.03125 -13.453125 C 6.425781 -14.066406 8.050781 -14.375 9.90625 -14.375 C 11.78125 -14.375 13.40625 -14.066406 14.78125 -13.453125 C 16.164062 -12.835938 17.238281 -11.96875 18 -10.84375 C 18.769531 -9.726562 19.15625 -8.421875 19.15625 -6.921875 C 19.15625 -5.429688 18.769531 -4.125 18 -3 C 17.238281 -1.882812 16.164062 -1.019531 14.78125 -0.40625 C 13.40625 0.207031 11.78125 0.515625 9.90625 0.515625 Z M 9.90625 -2.765625 C 11.34375 -2.765625 12.488281 -3.140625 13.34375 -3.890625 C 14.207031 -4.648438 14.640625 -5.660156 14.640625 -6.921875 C 14.640625 -8.203125 14.207031 -9.21875 13.34375 -9.96875 C 12.488281 -10.71875 11.34375 -11.09375 9.90625 -11.09375 C 8.457031 -11.09375 7.300781 -10.71875 6.4375 -9.96875 C 5.570312 -9.21875 5.140625 -8.203125 5.140625 -6.921875 C 5.140625 -5.660156 5.570312 -4.648438 6.4375 -3.890625 C 7.300781 -3.140625 8.457031 -2.765625 9.90625 -2.765625 Z M 9.90625 -2.765625 "/></g></g></g><g fill="#ffffff" fill-opacity="1"><g transform="translate(288.068649, 182.106982)"><g><path d="M 1.078125 0 L 1.078125 -20.078125 L 5.625 -20.078125 L 5.625 0 Z M 1.078125 0 "/></g></g></g><g fill="#d9d9d9" fill-opacity="1"><g transform="translate(99.307316, 196.420149)"><g><path d="M 2.046875 0.0625 C 1.753906 0.0625 1.488281 0.0234375 1.25 -0.046875 C 1.019531 -0.128906 0.828125 -0.234375 0.671875 -0.359375 C 0.515625 -0.492188 0.398438 -0.640625 0.328125 -0.796875 L 0.625 -1.171875 L 0.703125 -1.171875 C 0.992188 -0.679688 1.441406 -0.4375 2.046875 -0.4375 C 2.398438 -0.4375 2.660156 -0.507812 2.828125 -0.65625 C 3.003906 -0.800781 3.09375 -1.003906 3.09375 -1.265625 C 3.09375 -1.421875 3.0625 -1.550781 3 -1.65625 C 2.945312 -1.769531 2.851562 -1.863281 2.71875 -1.9375 C 2.59375 -2.007812 2.421875 -2.070312 2.203125 -2.125 L 1.65625 -2.265625 C 1.238281 -2.367188 0.929688 -2.523438 0.734375 -2.734375 C 0.546875 -2.953125 0.453125 -3.226562 0.453125 -3.5625 C 0.453125 -3.789062 0.507812 -3.992188 0.625 -4.171875 C 0.75 -4.359375 0.925781 -4.503906 1.15625 -4.609375 C 1.394531 -4.710938 1.671875 -4.765625 1.984375 -4.765625 C 2.335938 -4.765625 2.632812 -4.710938 2.875 -4.609375 C 3.125 -4.515625 3.320312 -4.367188 3.46875 -4.171875 L 3.203125 -3.796875 L 3.125 -3.796875 C 2.988281 -3.960938 2.828125 -4.082031 2.640625 -4.15625 C 2.453125 -4.238281 2.234375 -4.28125 1.984375 -4.28125 C 1.660156 -4.28125 1.414062 -4.21875 1.25 -4.09375 C 1.082031 -3.96875 1 -3.789062 1 -3.5625 C 1 -3.351562 1.0625 -3.1875 1.1875 -3.0625 C 1.3125 -2.9375 1.519531 -2.835938 1.8125 -2.765625 L 2.375 -2.640625 C 2.820312 -2.523438 3.148438 -2.359375 3.359375 -2.140625 C 3.566406 -1.921875 3.671875 -1.640625 3.671875 -1.296875 C 3.671875 -1.023438 3.609375 -0.785156 3.484375 -0.578125 C 3.367188 -0.378906 3.1875 -0.222656 2.9375 -0.109375 C 2.695312 0.00390625 2.398438 0.0625 2.046875 0.0625 Z M 2.046875 0.0625 "/></g></g><g transform="translate(103.3283, 196.420149)"><g><path d="M 1.265625 0 L 0.703125 0 L 0.703125 -4.703125 L 1.265625 -4.703125 Z M 1.265625 0 "/></g></g><g transform="translate(105.301888, 196.420149)"><g><path d="M 2.046875 0.0625 C 1.753906 0.0625 1.488281 0.0234375 1.25 -0.046875 C 1.019531 -0.128906 0.828125 -0.234375 0.671875 -0.359375 C 0.515625 -0.492188 0.398438 -0.640625 0.328125 -0.796875 L 0.625 -1.171875 L 0.703125 -1.171875 C 0.992188 -0.679688 1.441406 -0.4375 2.046875 -0.4375 C 2.398438 -0.4375 2.660156 -0.507812 2.828125 -0.65625 C 3.003906 -0.800781 3.09375 -1.003906 3.09375 -1.265625 C 3.09375 -1.421875 3.0625 -1.550781 3 -1.65625 C 2.945312 -1.769531 2.851562 -1.863281 2.71875 -1.9375 C 2.59375 -2.007812 2.421875 -2.070312 2.203125 -2.125 L 1.65625 -2.265625 C 1.238281 -2.367188 0.929688 -2.523438 0.734375 -2.734375 C 0.546875 -2.953125 0.453125 -3.226562 0.453125 -3.5625 C 0.453125 -3.789062 0.507812 -3.992188 0.625 -4.171875 C 0.75 -4.359375 0.925781 -4.503906 1.15625 -4.609375 C 1.394531 -4.710938 1.671875 -4.765625 1.984375 -4.765625 C 2.335938 -4.765625 2.632812 -4.710938 2.875 -4.609375 C 3.125 -4.515625 3.320312 -4.367188 3.46875 -4.171875 L 3.203125 -3.796875 L 3.125 -3.796875 C 2.988281 -3.960938 2.828125 -4.082031 2.640625 -4.15625 C 2.453125 -4.238281 2.234375 -4.28125 1.984375 -4.28125 C 1.660156 -4.28125 1.414062 -4.21875 1.25 -4.09375 C 1.082031 -3.96875 1 -3.789062 1 -3.5625 C 1 -3.351562 1.0625 -3.1875 1.1875 -3.0625 C 1.3125 -2.9375 1.519531 -2.835938 1.8125 -2.765625 L 2.375 -2.640625 C 2.820312 -2.523438 3.148438 -2.359375 3.359375 -2.140625 C 3.566406 -1.921875 3.671875 -1.640625 3.671875 -1.296875 C 3.671875 -1.023438 3.609375 -0.785156 3.484375 -0.578125 C 3.367188 -0.378906 3.1875 -0.222656 2.9375 -0.109375 C 2.695312 0.00390625 2.398438 0.0625 2.046875 0.0625 Z M 2.046875 0.0625 "/></g></g><g transform="translate(109.322873, 196.420149)"><g><path d="M 3.671875 -4.703125 L 3.671875 -4.234375 L 2.1875 -4.234375 L 2.1875 0 L 1.640625 0 L 1.640625 -4.234375 L 0.171875 -4.234375 L 0.171875 -4.703125 Z M 3.671875 -4.703125 "/></g></g><g transform="translate(113.154521, 196.420149)"><g><path d="M 1.265625 -2.21875 L 1.265625 -0.453125 L 3.65625 -0.453125 L 3.65625 0 L 0.703125 0 L 0.703125 -4.703125 L 3.609375 -4.703125 L 3.609375 -4.234375 L 1.265625 -4.234375 L 1.265625 -2.671875 L 3.328125 -2.671875 L 3.328125 -2.21875 Z M 1.265625 -2.21875 "/></g></g><g transform="translate(117.117742, 196.420149)"><g><path d="M 1.21875 0 L 0.703125 0 L 0.703125 -4.703125 L 1.53125 -4.703125 L 2.953125 -0.71875 L 3.015625 -0.71875 L 4.4375 -4.703125 L 5.234375 -4.703125 L 5.234375 0 L 4.703125 0 L 4.703125 -3.828125 L 4.625 -3.84375 L 3.234375 0 L 2.6875 0 L 1.296875 -3.84375 L 1.21875 -3.828125 Z M 1.21875 0 "/></g></g><g transform="translate(123.05776, 196.420149)"><g><path d="M 4.234375 0 L 3.640625 0 L 3.203125 -1.28125 L 1.203125 -1.28125 L 0.765625 0 L 0.1875 0 L 1.828125 -4.703125 L 2.59375 -4.703125 Z M 2.15625 -4.125 L 1.359375 -1.75 L 3.046875 -1.75 L 2.234375 -4.125 Z M 2.15625 -4.125 "/></g></g><g transform="translate(127.467044, 196.420149)"><g/></g><g transform="translate(129.078006, 196.420149)"><g><path d="M 2.234375 -4.703125 C 2.703125 -4.703125 3.109375 -4.613281 3.453125 -4.4375 C 3.796875 -4.269531 4.054688 -4.007812 4.234375 -3.65625 C 4.421875 -3.3125 4.515625 -2.875 4.515625 -2.34375 C 4.515625 -1.820312 4.421875 -1.382812 4.234375 -1.03125 C 4.054688 -0.6875 3.796875 -0.425781 3.453125 -0.25 C 3.109375 -0.0820312 2.703125 0 2.234375 0 L 0.703125 0 L 0.703125 -4.703125 Z M 2.171875 -0.46875 C 2.566406 -0.46875 2.890625 -0.523438 3.140625 -0.640625 C 3.398438 -0.765625 3.597656 -0.960938 3.734375 -1.234375 C 3.867188 -1.515625 3.9375 -1.882812 3.9375 -2.34375 C 3.9375 -2.800781 3.867188 -3.164062 3.734375 -3.4375 C 3.597656 -3.71875 3.398438 -3.921875 3.140625 -4.046875 C 2.890625 -4.171875 2.566406 -4.234375 2.171875 -4.234375 L 1.265625 -4.234375 L 1.265625 -0.46875 Z M 2.171875 -0.46875 "/></g></g><g transform="translate(134.064925, 196.420149)"><g><path d="M 1.265625 -2.21875 L 1.265625 -0.453125 L 3.65625 -0.453125 L 3.65625 0 L 0.703125 0 L 0.703125 -4.703125 L 3.609375 -4.703125 L 3.609375 -4.234375 L 1.265625 -4.234375 L 1.265625 -2.671875 L 3.328125 -2.671875 L 3.328125 -2.21875 Z M 1.265625 -2.21875 "/></g></g><g transform="translate(138.028146, 196.420149)"><g/></g><g transform="translate(139.639107, 196.420149)"><g><path d="M 2.46875 0.0625 C 2.070312 0.0625 1.722656 -0.0234375 1.421875 -0.203125 C 1.117188 -0.378906 0.882812 -0.648438 0.71875 -1.015625 C 0.550781 -1.378906 0.46875 -1.820312 0.46875 -2.34375 C 0.46875 -2.875 0.554688 -3.316406 0.734375 -3.671875 C 0.921875 -4.035156 1.171875 -4.304688 1.484375 -4.484375 C 1.804688 -4.671875 2.179688 -4.765625 2.609375 -4.765625 C 3.054688 -4.765625 3.421875 -4.679688 3.703125 -4.515625 C 3.992188 -4.359375 4.203125 -4.117188 4.328125 -3.796875 L 3.96875 -3.578125 L 3.890625 -3.578125 C 3.765625 -3.828125 3.597656 -4.003906 3.390625 -4.109375 C 3.179688 -4.210938 2.921875 -4.265625 2.609375 -4.265625 C 1.578125 -4.265625 1.0625 -3.625 1.0625 -2.34375 C 1.0625 -1.675781 1.191406 -1.191406 1.453125 -0.890625 C 1.710938 -0.585938 2.070312 -0.4375 2.53125 -0.4375 C 2.96875 -0.4375 3.289062 -0.53125 3.5 -0.71875 C 3.707031 -0.914062 3.8125 -1.222656 3.8125 -1.640625 L 3.8125 -2.0625 L 2.484375 -2.0625 L 2.484375 -2.5 L 4.359375 -2.5 L 4.359375 0 L 3.84375 0 L 3.84375 -0.625 L 3.78125 -0.640625 C 3.65625 -0.398438 3.476562 -0.222656 3.25 -0.109375 C 3.03125 0.00390625 2.769531 0.0625 2.46875 0.0625 Z M 2.46875 0.0625 "/></g></g><g transform="translate(144.516918, 196.420149)"><g><path d="M 1.265625 -2.21875 L 1.265625 -0.453125 L 3.65625 -0.453125 L 3.65625 0 L 0.703125 0 L 0.703125 -4.703125 L 3.609375 -4.703125 L 3.609375 -4.234375 L 1.265625 -4.234375 L 1.265625 -2.671875 L 3.328125 -2.671875 L 3.328125 -2.21875 Z M 1.265625 -2.21875 "/></g></g><g transform="translate(148.480139, 196.420149)"><g><path d="M 0.703125 0 L 0.703125 -4.703125 L 2.421875 -4.703125 C 2.734375 -4.703125 2.992188 -4.648438 3.203125 -4.546875 C 3.421875 -4.441406 3.582031 -4.289062 3.6875 -4.09375 C 3.789062 -3.90625 3.84375 -3.679688 3.84375 -3.421875 C 3.84375 -3.128906 3.769531 -2.890625 3.625 -2.703125 C 3.488281 -2.515625 3.265625 -2.375 2.953125 -2.28125 L 2.953125 -2.21875 C 3.109375 -2.15625 3.234375 -2.054688 3.328125 -1.921875 C 3.421875 -1.796875 3.507812 -1.609375 3.59375 -1.359375 L 4.03125 0 L 3.453125 0 L 2.984375 -1.4375 C 2.929688 -1.601562 2.867188 -1.734375 2.796875 -1.828125 C 2.722656 -1.929688 2.628906 -2.003906 2.515625 -2.046875 C 2.398438 -2.085938 2.257812 -2.109375 2.09375 -2.109375 L 1.265625 -2.109375 L 1.265625 0 Z M 2.40625 -2.578125 C 2.695312 -2.578125 2.910156 -2.644531 3.046875 -2.78125 C 3.191406 -2.914062 3.265625 -3.125 3.265625 -3.40625 C 3.265625 -3.675781 3.191406 -3.878906 3.046875 -4.015625 C 2.910156 -4.160156 2.695312 -4.234375 2.40625 -4.234375 L 1.265625 -4.234375 L 1.265625 -2.578125 Z M 2.40625 -2.578125 "/></g></g><g transform="translate(152.825241, 196.420149)"><g><path d="M 1.265625 -2.21875 L 1.265625 -0.453125 L 3.65625 -0.453125 L 3.65625 0 L 0.703125 0 L 0.703125 -4.703125 L 3.609375 -4.703125 L 3.609375 -4.234375 L 1.265625 -4.234375 L 1.265625 -2.671875 L 3.328125 -2.671875 L 3.328125 -2.21875 Z M 1.265625 -2.21875 "/></g></g><g transform="translate(156.788462, 196.420149)"><g><path d="M 1.25 0 L 0.703125 0 L 0.703125 -4.703125 L 1.390625 -4.703125 L 3.671875 -1.109375 L 3.765625 -1.125 L 3.765625 -4.703125 L 4.296875 -4.703125 L 4.296875 0 L 3.71875 0 L 1.328125 -3.84375 L 1.25 -3.828125 Z M 1.25 0 "/></g></g><g transform="translate(161.791427, 196.420149)"><g><path d="M 2.59375 0.0625 C 2.1875 0.0625 1.820312 -0.03125 1.5 -0.21875 C 1.175781 -0.40625 0.921875 -0.679688 0.734375 -1.046875 C 0.554688 -1.410156 0.46875 -1.84375 0.46875 -2.34375 C 0.46875 -2.851562 0.554688 -3.289062 0.734375 -3.65625 C 0.921875 -4.019531 1.175781 -4.296875 1.5 -4.484375 C 1.820312 -4.671875 2.1875 -4.765625 2.59375 -4.765625 C 3.03125 -4.765625 3.394531 -4.679688 3.6875 -4.515625 C 3.976562 -4.347656 4.1875 -4.097656 4.3125 -3.765625 L 3.96875 -3.53125 L 3.890625 -3.53125 C 3.753906 -3.800781 3.582031 -3.988281 3.375 -4.09375 C 3.175781 -4.207031 2.914062 -4.265625 2.59375 -4.265625 C 2.300781 -4.265625 2.039062 -4.195312 1.8125 -4.0625 C 1.582031 -3.9375 1.398438 -3.726562 1.265625 -3.4375 C 1.128906 -3.15625 1.0625 -2.789062 1.0625 -2.34375 C 1.0625 -1.90625 1.128906 -1.539062 1.265625 -1.25 C 1.398438 -0.96875 1.582031 -0.757812 1.8125 -0.625 C 2.039062 -0.5 2.300781 -0.4375 2.59375 -0.4375 C 2.9375 -0.4375 3.210938 -0.507812 3.421875 -0.65625 C 3.640625 -0.8125 3.800781 -1.0625 3.90625 -1.40625 L 4 -1.40625 L 4.359375 -1.21875 C 4.242188 -0.800781 4.035156 -0.484375 3.734375 -0.265625 C 3.441406 -0.046875 3.0625 0.0625 2.59375 0.0625 Z M 2.59375 0.0625 "/></g></g><g transform="translate(166.393257, 196.420149)"><g><path d="M 1.265625 0 L 0.703125 0 L 0.703125 -4.703125 L 1.265625 -4.703125 Z M 1.265625 0 "/></g></g><g transform="translate(168.366844, 196.420149)"><g><path d="M 4.234375 0 L 3.640625 0 L 3.203125 -1.28125 L 1.203125 -1.28125 L 0.765625 0 L 0.1875 0 L 1.828125 -4.703125 L 2.59375 -4.703125 Z M 2.15625 -4.125 L 1.359375 -1.75 L 3.046875 -1.75 L 2.234375 -4.125 Z M 2.15625 -4.125 "/></g></g><g transform="translate(172.776128, 196.420149)"><g><path d="M 1.21875 0 L 0.703125 0 L 0.703125 -4.703125 L 1.53125 -4.703125 L 2.953125 -0.71875 L 3.015625 -0.71875 L 4.4375 -4.703125 L 5.234375 -4.703125 L 5.234375 0 L 4.703125 0 L 4.703125 -3.828125 L 4.625 -3.84375 L 3.234375 0 L 2.6875 0 L 1.296875 -3.84375 L 1.21875 -3.828125 Z M 1.21875 0 "/></g></g><g transform="translate(178.716146, 196.420149)"><g><path d="M 1.265625 -2.21875 L 1.265625 -0.453125 L 3.65625 -0.453125 L 3.65625 0 L 0.703125 0 L 0.703125 -4.703125 L 3.609375 -4.703125 L 3.609375 -4.234375 L 1.265625 -4.234375 L 1.265625 -2.671875 L 3.328125 -2.671875 L 3.328125 -2.21875 Z M 1.265625 -2.21875 "/></g></g><g transform="translate(182.679368, 196.420149)"><g><path d="M 1.25 0 L 0.703125 0 L 0.703125 -4.703125 L 1.390625 -4.703125 L 3.671875 -1.109375 L 3.765625 -1.125 L 3.765625 -4.703125 L 4.296875 -4.703125 L 4.296875 0 L 3.71875 0 L 1.328125 -3.84375 L 1.25 -3.828125 Z M 1.25 0 "/></g></g><g transform="translate(187.682332, 196.420149)"><g><path d="M 3.671875 -4.703125 L 3.671875 -4.234375 L 2.1875 -4.234375 L 2.1875 0 L 1.640625 0 L 1.640625 -4.234375 L 0.171875 -4.234375 L 0.171875 -4.703125 Z M 3.671875 -4.703125 "/></g></g><g transform="translate(191.513981, 196.420149)"><g><path d="M 2.578125 0.0625 C 2.171875 0.0625 1.804688 -0.0195312 1.484375 -0.1875 C 1.171875 -0.363281 0.921875 -0.632812 0.734375 -1 C 0.554688 -1.363281 0.46875 -1.8125 0.46875 -2.34375 C 0.46875 -2.882812 0.554688 -3.332031 0.734375 -3.6875 C 0.921875 -4.050781 1.171875 -4.320312 1.484375 -4.5 C 1.804688 -4.675781 2.171875 -4.765625 2.578125 -4.765625 C 2.984375 -4.765625 3.34375 -4.675781 3.65625 -4.5 C 3.976562 -4.320312 4.226562 -4.050781 4.40625 -3.6875 C 4.59375 -3.332031 4.6875 -2.882812 4.6875 -2.34375 C 4.6875 -1.8125 4.59375 -1.363281 4.40625 -1 C 4.226562 -0.632812 3.976562 -0.363281 3.65625 -0.1875 C 3.34375 -0.0195312 2.984375 0.0625 2.578125 0.0625 Z M 2.578125 -0.4375 C 3.066406 -0.4375 3.441406 -0.585938 3.703125 -0.890625 C 3.960938 -1.203125 4.09375 -1.6875 4.09375 -2.34375 C 4.09375 -3.007812 3.960938 -3.492188 3.703125 -3.796875 C 3.441406 -4.097656 3.066406 -4.25 2.578125 -4.25 C 1.566406 -4.25 1.0625 -3.613281 1.0625 -2.34375 C 1.0625 -1.070312 1.566406 -0.4375 2.578125 -0.4375 Z M 2.578125 -0.4375 "/></g></g><g transform="translate(196.661355, 196.420149)"><g/></g><g transform="translate(198.272316, 196.420149)"><g><path d="M 2.234375 -4.703125 C 2.703125 -4.703125 3.109375 -4.613281 3.453125 -4.4375 C 3.796875 -4.269531 4.054688 -4.007812 4.234375 -3.65625 C 4.421875 -3.3125 4.515625 -2.875 4.515625 -2.34375 C 4.515625 -1.820312 4.421875 -1.382812 4.234375 -1.03125 C 4.054688 -0.6875 3.796875 -0.425781 3.453125 -0.25 C 3.109375 -0.0820312 2.703125 0 2.234375 0 L 0.703125 0 L 0.703125 -4.703125 Z M 2.171875 -0.46875 C 2.566406 -0.46875 2.890625 -0.523438 3.140625 -0.640625 C 3.398438 -0.765625 3.597656 -0.960938 3.734375 -1.234375 C 3.867188 -1.515625 3.9375 -1.882812 3.9375 -2.34375 C 3.9375 -2.800781 3.867188 -3.164062 3.734375 -3.4375 C 3.597656 -3.71875 3.398438 -3.921875 3.140625 -4.046875 C 2.890625 -4.171875 2.566406 -4.234375 2.171875 -4.234375 L 1.265625 -4.234375 L 1.265625 -0.46875 Z M 2.171875 -0.46875 "/></g></g><g transform="translate(203.259236, 196.420149)"><g><path d="M 1.265625 -2.21875 L 1.265625 -0.453125 L 3.65625 -0.453125 L 3.65625 0 L 0.703125 0 L 0.703125 -4.703125 L 3.609375 -4.703125 L 3.609375 -4.234375 L 1.265625 -4.234375 L 1.265625 -2.671875 L 3.328125 -2.671875 L 3.328125 -2.21875 Z M 1.265625 -2.21875 "/></g></g><g transform="translate(207.222457, 196.420149)"><g/></g><g transform="translate(208.833418, 196.420149)"><g><path d="M 2.5625 0 L 1.828125 0 L 0.203125 -4.703125 L 0.796875 -4.703125 L 2.171875 -0.6875 L 2.25 -0.6875 L 3.609375 -4.703125 L 4.1875 -4.703125 Z M 2.5625 0 "/></g></g><g transform="translate(213.217029, 196.420149)"><g><path d="M 1.265625 0 L 0.703125 0 L 0.703125 -4.703125 L 1.265625 -4.703125 Z M 1.265625 0 "/></g></g><g transform="translate(215.190617, 196.420149)"><g><path d="M 2.046875 0.0625 C 1.753906 0.0625 1.488281 0.0234375 1.25 -0.046875 C 1.019531 -0.128906 0.828125 -0.234375 0.671875 -0.359375 C 0.515625 -0.492188 0.398438 -0.640625 0.328125 -0.796875 L 0.625 -1.171875 L 0.703125 -1.171875 C 0.992188 -0.679688 1.441406 -0.4375 2.046875 -0.4375 C 2.398438 -0.4375 2.660156 -0.507812 2.828125 -0.65625 C 3.003906 -0.800781 3.09375 -1.003906 3.09375 -1.265625 C 3.09375 -1.421875 3.0625 -1.550781 3 -1.65625 C 2.945312 -1.769531 2.851562 -1.863281 2.71875 -1.9375 C 2.59375 -2.007812 2.421875 -2.070312 2.203125 -2.125 L 1.65625 -2.265625 C 1.238281 -2.367188 0.929688 -2.523438 0.734375 -2.734375 C 0.546875 -2.953125 0.453125 -3.226562 0.453125 -3.5625 C 0.453125 -3.789062 0.507812 -3.992188 0.625 -4.171875 C 0.75 -4.359375 0.925781 -4.503906 1.15625 -4.609375 C 1.394531 -4.710938 1.671875 -4.765625 1.984375 -4.765625 C 2.335938 -4.765625 2.632812 -4.710938 2.875 -4.609375 C 3.125 -4.515625 3.320312 -4.367188 3.46875 -4.171875 L 3.203125 -3.796875 L 3.125 -3.796875 C 2.988281 -3.960938 2.828125 -4.082031 2.640625 -4.15625 C 2.453125 -4.238281 2.234375 -4.28125 1.984375 -4.28125 C 1.660156 -4.28125 1.414062 -4.21875 1.25 -4.09375 C 1.082031 -3.96875 1 -3.789062 1 -3.5625 C 1 -3.351562 1.0625 -3.1875 1.1875 -3.0625 C 1.3125 -2.9375 1.519531 -2.835938 1.8125 -2.765625 L 2.375 -2.640625 C 2.820312 -2.523438 3.148438 -2.359375 3.359375 -2.140625 C 3.566406 -1.921875 3.671875 -1.640625 3.671875 -1.296875 C 3.671875 -1.023438 3.609375 -0.785156 3.484375 -0.578125 C 3.367188 -0.378906 3.1875 -0.222656 2.9375 -0.109375 C 2.695312 0.00390625 2.398438 0.0625 2.046875 0.0625 Z M 2.046875 0.0625 "/></g></g><g transform="translate(219.211602, 196.420149)"><g><path d="M 1.265625 0 L 0.703125 0 L 0.703125 -4.703125 L 1.265625 -4.703125 Z M 1.265625 0 "/></g></g><g transform="translate(221.185189, 196.420149)"><g><path d="M 3.671875 -4.703125 L 3.671875 -4.234375 L 2.1875 -4.234375 L 2.1875 0 L 1.640625 0 L 1.640625 -4.234375 L 0.171875 -4.234375 L 0.171875 -4.703125 Z M 3.671875 -4.703125 "/></g></g><g transform="translate(225.016838, 196.420149)"><g><path d="M 4.234375 0 L 3.640625 0 L 3.203125 -1.28125 L 1.203125 -1.28125 L 0.765625 0 L 0.1875 0 L 1.828125 -4.703125 L 2.59375 -4.703125 Z M 2.15625 -4.125 L 1.359375 -1.75 L 3.046875 -1.75 L 2.234375 -4.125 Z M 2.15625 -4.125 "/></g></g><g transform="translate(229.426122, 196.420149)"><g><path d="M 1.25 0 L 0.703125 0 L 0.703125 -4.703125 L 1.390625 -4.703125 L 3.671875 -1.109375 L 3.765625 -1.125 L 3.765625 -4.703125 L 4.296875 -4.703125 L 4.296875 0 L 3.71875 0 L 1.328125 -3.84375 L 1.25 -3.828125 Z M 1.25 0 "/></g></g><g transform="translate(234.429087, 196.420149)"><g><path d="M 3.671875 -4.703125 L 3.671875 -4.234375 L 2.1875 -4.234375 L 2.1875 0 L 1.640625 0 L 1.640625 -4.234375 L 0.171875 -4.234375 L 0.171875 -4.703125 Z M 3.671875 -4.703125 "/></g></g><g transform="translate(238.260736, 196.420149)"><g><path d="M 1.265625 -2.21875 L 1.265625 -0.453125 L 3.65625 -0.453125 L 3.65625 0 L 0.703125 0 L 0.703125 -4.703125 L 3.609375 -4.703125 L 3.609375 -4.234375 L 1.265625 -4.234375 L 1.265625 -2.671875 L 3.328125 -2.671875 L 3.328125 -2.21875 Z M 1.265625 -2.21875 "/></g></g><g transform="translate(242.223957, 196.420149)"><g><path d="M 2.046875 0.0625 C 1.753906 0.0625 1.488281 0.0234375 1.25 -0.046875 C 1.019531 -0.128906 0.828125 -0.234375 0.671875 -0.359375 C 0.515625 -0.492188 0.398438 -0.640625 0.328125 -0.796875 L 0.625 -1.171875 L 0.703125 -1.171875 C 0.992188 -0.679688 1.441406 -0.4375 2.046875 -0.4375 C 2.398438 -0.4375 2.660156 -0.507812 2.828125 -0.65625 C 3.003906 -0.800781 3.09375 -1.003906 3.09375 -1.265625 C 3.09375 -1.421875 3.0625 -1.550781 3 -1.65625 C 2.945312 -1.769531 2.851562 -1.863281 2.71875 -1.9375 C 2.59375 -2.007812 2.421875 -2.070312 2.203125 -2.125 L 1.65625 -2.265625 C 1.238281 -2.367188 0.929688 -2.523438 0.734375 -2.734375 C 0.546875 -2.953125 0.453125 -3.226562 0.453125 -3.5625 C 0.453125 -3.789062 0.507812 -3.992188 0.625 -4.171875 C 0.75 -4.359375 0.925781 -4.503906 1.15625 -4.609375 C 1.394531 -4.710938 1.671875 -4.765625 1.984375 -4.765625 C 2.335938 -4.765625 2.632812 -4.710938 2.875 -4.609375 C 3.125 -4.515625 3.320312 -4.367188 3.46875 -4.171875 L 3.203125 -3.796875 L 3.125 -3.796875 C 2.988281 -3.960938 2.828125 -4.082031 2.640625 -4.15625 C 2.453125 -4.238281 2.234375 -4.28125 1.984375 -4.28125 C 1.660156 -4.28125 1.414062 -4.21875 1.25 -4.09375 C 1.082031 -3.96875 1 -3.789062 1 -3.5625 C 1 -3.351562 1.0625 -3.1875 1.1875 -3.0625 C 1.3125 -2.9375 1.519531 -2.835938 1.8125 -2.765625 L 2.375 -2.640625 C 2.820312 -2.523438 3.148438 -2.359375 3.359375 -2.140625 C 3.566406 -1.921875 3.671875 -1.640625 3.671875 -1.296875 C 3.671875 -1.023438 3.609375 -0.785156 3.484375 -0.578125 C 3.367188 -0.378906 3.1875 -0.222656 2.9375 -0.109375 C 2.695312 0.00390625 2.398438 0.0625 2.046875 0.0625 Z M 2.046875 0.0625 "/></g></g><g transform="translate(246.244941, 196.420149)"><g/></g><g transform="translate(247.855903, 196.420149)"><g><path d="M 2.390625 -4.703125 C 2.710938 -4.703125 2.988281 -4.640625 3.21875 -4.515625 C 3.445312 -4.398438 3.625 -4.234375 3.75 -4.015625 C 3.875 -3.804688 3.9375 -3.554688 3.9375 -3.265625 C 3.9375 -2.972656 3.875 -2.71875 3.75 -2.5 C 3.625 -2.289062 3.445312 -2.128906 3.21875 -2.015625 C 2.988281 -1.898438 2.710938 -1.84375 2.390625 -1.84375 L 1.265625 -1.84375 L 1.265625 0 L 0.703125 0 L 0.703125 -4.703125 Z M 2.375 -2.3125 C 3.03125 -2.3125 3.359375 -2.628906 3.359375 -3.265625 C 3.359375 -3.910156 3.03125 -4.234375 2.375 -4.234375 L 1.265625 -4.234375 L 1.265625 -2.3125 Z M 2.375 -2.3125 "/></g></g><g transform="translate(252.133614, 196.420149)"><g><path d="M 4.234375 0 L 3.640625 0 L 3.203125 -1.28125 L 1.203125 -1.28125 L 0.765625 0 L 0.1875 0 L 1.828125 -4.703125 L 2.59375 -4.703125 Z M 2.15625 -4.125 L 1.359375 -1.75 L 3.046875 -1.75 L 2.234375 -4.125 Z M 2.15625 -4.125 "/></g></g><g transform="translate(256.542898, 196.420149)"><g><path d="M 0.703125 0 L 0.703125 -4.703125 L 2.421875 -4.703125 C 2.734375 -4.703125 2.992188 -4.648438 3.203125 -4.546875 C 3.421875 -4.441406 3.582031 -4.289062 3.6875 -4.09375 C 3.789062 -3.90625 3.84375 -3.679688 3.84375 -3.421875 C 3.84375 -3.128906 3.769531 -2.890625 3.625 -2.703125 C 3.488281 -2.515625 3.265625 -2.375 2.953125 -2.28125 L 2.953125 -2.21875 C 3.109375 -2.15625 3.234375 -2.054688 3.328125 -1.921875 C 3.421875 -1.796875 3.507812 -1.609375 3.59375 -1.359375 L 4.03125 0 L 3.453125 0 L 2.984375 -1.4375 C 2.929688 -1.601562 2.867188 -1.734375 2.796875 -1.828125 C 2.722656 -1.929688 2.628906 -2.003906 2.515625 -2.046875 C 2.398438 -2.085938 2.257812 -2.109375 2.09375 -2.109375 L 1.265625 -2.109375 L 1.265625 0 Z M 2.40625 -2.578125 C 2.695312 -2.578125 2.910156 -2.644531 3.046875 -2.78125 C 3.191406 -2.914062 3.265625 -3.125 3.265625 -3.40625 C 3.265625 -3.675781 3.191406 -3.878906 3.046875 -4.015625 C 2.910156 -4.160156 2.695312 -4.234375 2.40625 -4.234375 L 1.265625 -4.234375 L 1.265625 -2.578125 Z M 2.40625 -2.578125 "/></g></g><g transform="translate(260.888, 196.420149)"><g><path d="M 4.234375 0 L 3.640625 0 L 3.203125 -1.28125 L 1.203125 -1.28125 L 0.765625 0 L 0.1875 0 L 1.828125 -4.703125 L 2.59375 -4.703125 Z M 2.15625 -4.125 L 1.359375 -1.75 L 3.046875 -1.75 L 2.234375 -4.125 Z M 2.15625 -4.125 "/></g></g><g transform="translate(265.297285, 196.420149)"><g/></g><g transform="translate(266.908246, 196.420149)"><g><path d="M 2.390625 -4.703125 C 2.710938 -4.703125 2.988281 -4.640625 3.21875 -4.515625 C 3.445312 -4.398438 3.625 -4.234375 3.75 -4.015625 C 3.875 -3.804688 3.9375 -3.554688 3.9375 -3.265625 C 3.9375 -2.972656 3.875 -2.71875 3.75 -2.5 C 3.625 -2.289062 3.445312 -2.128906 3.21875 -2.015625 C 2.988281 -1.898438 2.710938 -1.84375 2.390625 -1.84375 L 1.265625 -1.84375 L 1.265625 0 L 0.703125 0 L 0.703125 -4.703125 Z M 2.375 -2.3125 C 3.03125 -2.3125 3.359375 -2.628906 3.359375 -3.265625 C 3.359375 -3.910156 3.03125 -4.234375 2.375 -4.234375 L 1.265625 -4.234375 L 1.265625 -2.3125 Z M 2.375 -2.3125 "/></g></g><g transform="translate(271.185957, 196.420149)"><g><path d="M 2.578125 0.0625 C 2.171875 0.0625 1.804688 -0.0195312 1.484375 -0.1875 C 1.171875 -0.363281 0.921875 -0.632812 0.734375 -1 C 0.554688 -1.363281 0.46875 -1.8125 0.46875 -2.34375 C 0.46875 -2.882812 0.554688 -3.332031 0.734375 -3.6875 C 0.921875 -4.050781 1.171875 -4.320312 1.484375 -4.5 C 1.804688 -4.675781 2.171875 -4.765625 2.578125 -4.765625 C 2.984375 -4.765625 3.34375 -4.675781 3.65625 -4.5 C 3.976562 -4.320312 4.226562 -4.050781 4.40625 -3.6875 C 4.59375 -3.332031 4.6875 -2.882812 4.6875 -2.34375 C 4.6875 -1.8125 4.59375 -1.363281 4.40625 -1 C 4.226562 -0.632812 3.976562 -0.363281 3.65625 -0.1875 C 3.34375 -0.0195312 2.984375 0.0625 2.578125 0.0625 Z M 2.578125 -0.4375 C 3.066406 -0.4375 3.441406 -0.585938 3.703125 -0.890625 C 3.960938 -1.203125 4.09375 -1.6875 4.09375 -2.34375 C 4.09375 -3.007812 3.960938 -3.492188 3.703125 -3.796875 C 3.441406 -4.097656 3.066406 -4.25 2.578125 -4.25 C 1.566406 -4.25 1.0625 -3.613281 1.0625 -2.34375 C 1.0625 -1.070312 1.566406 -0.4375 2.578125 -0.4375 Z M 2.578125 -0.4375 "/></g></g><g transform="translate(276.333331, 196.420149)"><g><path d="M 0.703125 0 L 0.703125 -4.703125 L 2.421875 -4.703125 C 2.734375 -4.703125 2.992188 -4.648438 3.203125 -4.546875 C 3.421875 -4.441406 3.582031 -4.289062 3.6875 -4.09375 C 3.789062 -3.90625 3.84375 -3.679688 3.84375 -3.421875 C 3.84375 -3.128906 3.769531 -2.890625 3.625 -2.703125 C 3.488281 -2.515625 3.265625 -2.375 2.953125 -2.28125 L 2.953125 -2.21875 C 3.109375 -2.15625 3.234375 -2.054688 3.328125 -1.921875 C 3.421875 -1.796875 3.507812 -1.609375 3.59375 -1.359375 L 4.03125 0 L 3.453125 0 L 2.984375 -1.4375 C 2.929688 -1.601562 2.867188 -1.734375 2.796875 -1.828125 C 2.722656 -1.929688 2.628906 -2.003906 2.515625 -2.046875 C 2.398438 -2.085938 2.257812 -2.109375 2.09375 -2.109375 L 1.265625 -2.109375 L 1.265625 0 Z M 2.40625 -2.578125 C 2.695312 -2.578125 2.910156 -2.644531 3.046875 -2.78125 C 3.191406 -2.914062 3.265625 -3.125 3.265625 -3.40625 C 3.265625 -3.675781 3.191406 -3.878906 3.046875 -4.015625 C 2.910156 -4.160156 2.695312 -4.234375 2.40625 -4.234375 L 1.265625 -4.234375 L 1.265625 -2.578125 Z M 2.40625 -2.578125 "/></g></g><g transform="translate(280.678433, 196.420149)"><g><path d="M 3.671875 -4.703125 L 3.671875 -4.234375 L 2.1875 -4.234375 L 2.1875 0 L 1.640625 0 L 1.640625 -4.234375 L 0.171875 -4.234375 L 0.171875 -4.703125 Z M 3.671875 -4.703125 "/></g></g><g transform="translate(284.510082, 196.420149)"><g><path d="M 4.234375 0 L 3.640625 0 L 3.203125 -1.28125 L 1.203125 -1.28125 L 0.765625 0 L 0.1875 0 L 1.828125 -4.703125 L 2.59375 -4.703125 Z M 2.15625 -4.125 L 1.359375 -1.75 L 3.046875 -1.75 L 2.234375 -4.125 Z M 2.15625 -4.125 "/></g></g><g transform="translate(288.919366, 196.420149)"><g><path d="M 0.703125 0 L 0.703125 -4.703125 L 2.421875 -4.703125 C 2.734375 -4.703125 2.992188 -4.648438 3.203125 -4.546875 C 3.421875 -4.441406 3.582031 -4.289062 3.6875 -4.09375 C 3.789062 -3.90625 3.84375 -3.679688 3.84375 -3.421875 C 3.84375 -3.128906 3.769531 -2.890625 3.625 -2.703125 C 3.488281 -2.515625 3.265625 -2.375 2.953125 -2.28125 L 2.953125 -2.21875 C 3.109375 -2.15625 3.234375 -2.054688 3.328125 -1.921875 C 3.421875 -1.796875 3.507812 -1.609375 3.59375 -1.359375 L 4.03125 0 L 3.453125 0 L 2.984375 -1.4375 C 2.929688 -1.601562 2.867188 -1.734375 2.796875 -1.828125 C 2.722656 -1.929688 2.628906 -2.003906 2.515625 -2.046875 C 2.398438 -2.085938 2.257812 -2.109375 2.09375 -2.109375 L 1.265625 -2.109375 L 1.265625 0 Z M 2.40625 -2.578125 C 2.695312 -2.578125 2.910156 -2.644531 3.046875 -2.78125 C 3.191406 -2.914062 3.265625 -3.125 3.265625 -3.40625 C 3.265625 -3.675781 3.191406 -3.878906 3.046875 -4.015625 C 2.910156 -4.160156 2.695312 -4.234375 2.40625 -4.234375 L 1.265625 -4.234375 L 1.265625 -2.578125 Z M 2.40625 -2.578125 "/></g></g><g transform="translate(293.264468, 196.420149)"><g><path d="M 1.265625 0 L 0.703125 0 L 0.703125 -4.703125 L 1.265625 -4.703125 Z M 1.265625 0 "/></g></g><g transform="translate(295.238056, 196.420149)"><g><path d="M 4.234375 0 L 3.640625 0 L 3.203125 -1.28125 L 1.203125 -1.28125 L 0.765625 0 L 0.1875 0 L 1.828125 -4.703125 L 2.59375 -4.703125 Z M 2.15625 -4.125 L 1.359375 -1.75 L 3.046875 -1.75 L 2.234375 -4.125 Z M 2.15625 -4.125 "/></g></g></g></svg>